<?xml version="1.0" encoding="utf-8"?>
<!-- Generator: Adobe Illustrator 20.1.0, SVG Export Plug-In . SVG Version: 6.00 Build 0)  -->
<svg version="1.1" id="Layer_1" xmlns="http://www.w3.org/2000/svg" xmlns:xlink="http://www.w3.org/1999/xlink" x="0px" y="0px"
	 viewBox="0 0 500 500" style="enable-background:new 0 0 500 500;" xml:space="preserve">
<style type="text/css">
	.st0{font-family:'Helvetica-Bold';}
	.st1{font-size:324.7593px;}
	.st2{font-size:219.1556px;}
</style>
<text transform="matrix(1 0 0 1 65.5791 316.7665)"><tspan x="0" y="0" class="st0 st1">F</tspan><tspan x="198.4" y="0" class="st0 st2">w</tspan></text>
<g>
	<path d="M420.6,44c19.5,0,35.4,15.9,35.4,35.4v187.8c0,50.4-19.6,97.8-55.3,133.5s-83,55.3-133.5,55.3h-34.5
		c-50.4,0-97.8-19.6-133.5-55.3S44,317.7,44,267.3V79.4C44,59.9,59.9,44,79.4,44H420.6 M420.6,0H79.4C35.6,0,0,35.6,0,79.4v187.8
		C0,395.8,104.2,500,232.7,500h34.5C395.8,500,500,395.8,500,267.3V79.4C500,35.6,464.4,0,420.6,0L420.6,0z"/>
</g>
</svg>
